<?xml version="1.0" encoding="UTF-8"?>
<svg width="752pt" height="752pt" version="1.1" viewBox="0 0 752 752" xmlns="http://www.w3.org/2000/svg">
 <g>
  <path d="m555.07 321.8c-24.566-31.391-61.262-49.398-100.64-49.398h-11.723c-55.98 0-110.99 15.16-159.08 43.82l-98.27 58.59c-10.203 6.0977-16.543 17.328-16.543 29.309 0 18.746 15.074 31.074 33.602 31.074h125.32c30.668 0 77.805 7.0391 107.46 15.145l87.176 28.355c0.51953 0.14453 1.0703 0.26172 1.6055 0.34766 2.3906 0.36328 4.7578 0.55078 7.1016 0.55078h0.015625c20.496 0 38.762-13.988 43.949-32.633 5.4062-13.832 8.1484-28.387 8.1484-43.273 0-29.656-9.9844-58.734-28.125-81.887z"/>
  <path d="m327.74 450h-125.33c-5.1719 0-10-0.89453-14.602-2.1953l-8.8828 2.9609c-7.2188 2.3984-11.434 9.8867-9.75 17.312 1.543 6.8086 7.5977 11.52 14.418 11.52 0.61328 0 1.2266-0.042968 1.8516-0.11719l197.27-24.66c-19.887-2.9414-39.93-4.8203-54.98-4.8203z"/>
 </g>
</svg>
